<svg width="18" height="19" viewBox="0 0 18 19" fill="none" xmlns="http://www.w3.org/2000/svg">
<path d="M6.90571 0.306641L5.50336 4.58201C5.43159 4.80082 5.30958 4.99967 5.14715 5.16255C4.98472 5.32543 4.78642 5.44778 4.56821 5.51975L0.304688 6.926L4.56821 8.33224C4.78642 8.40421 4.98472 8.52656 5.14715 8.68944C5.30958 8.85232 5.43159 9.05117 5.50336 9.26998L6.90571 13.5454L8.30805 9.26998C8.37982 9.05117 8.50184 8.85232 8.66426 8.68944C8.82669 8.52656 9.02499 8.40421 9.2432 8.33224L13.5067 6.926L9.2432 5.51975C9.02499 5.44778 8.82669 5.32543 8.66426 5.16255C8.50184 4.99967 8.37982 4.80082 8.30805 4.58201L6.90571 0.306641Z" fill="black"/>
<path d="M13.5066 10.603L12.6496 13.2158C12.6058 13.3495 12.5312 13.471 12.4319 13.5705C12.3327 13.6701 12.2115 13.7448 12.0781 13.7888L9.47266 14.6482L12.0781 15.5076C12.2115 15.5515 12.3327 15.6263 12.4319 15.7258C12.5312 15.8254 12.6058 15.9469 12.6496 16.0806L13.5066 18.6934L14.3636 16.0806C14.4075 15.9469 14.482 15.8254 14.5813 15.7258C14.6805 15.6263 14.8017 15.5515 14.9351 15.5076L17.5406 14.6482L14.9351 13.7888C14.8017 13.7448 14.6805 13.6701 14.5813 13.5705C14.482 13.471 14.4075 13.3495 14.3636 13.2158L13.5066 10.603Z" fill="black"/>
</svg>
